<?xml version="1.0" standalone="no"?>
<!DOCTYPE svg PUBLIC "-//W3C//DTD SVG 20010904//EN"
 "http://www.w3.org/TR/2001/REC-SVG-20010904/DTD/svg10.dtd">
<svg version="1.0" xmlns="http://www.w3.org/2000/svg"
 width="512.000000pt" height="506.000000pt" viewBox="0 0 512.000000 506.000000"
 preserveAspectRatio="xMidYMid meet">
<metadata>
Created by potrace 1.16, written by Peter Selinger 2001-2019
</metadata>
<g transform="translate(0.000000,506.000000) scale(0.100000,-0.100000)"
fill="#000000" stroke="none">
<path d="M2620 3585 c-107 -81 -197 -151 -198 -156 -2 -5 36 -51 85 -102 49
-51 155 -163 236 -249 l147 -157 0 -51 0 -50 -190 0 -190 0 0 -394 0 -394 23
-5 c12 -3 74 -15 137 -27 63 -11 125 -23 138 -25 l22 -5 0 295 0 295 30 0 30
0 0 -306 0 -306 -27 5 c-16 3 -166 31 -335 63 l-308 57 -247 -68 c-230 -63
-295 -84 -267 -85 12 0 744 -136 782 -145 l22 -5 0 -261 0 -261 393 4 c432 5
444 6 582 72 88 42 151 98 210 186 100 150 140 327 132 570 -7 183 -29 285
-88 408 -49 102 -152 216 -234 258 l-55 29 0 149 0 148 -138 142 c-141 145
-332 342 -438 454 l-59 63 -195 -146z m870 -1349 c18 -100 8 -404 -15 -476
-37 -117 -76 -167 -165 -209 -53 -25 -63 -26 -267 -29 l-213 -4 0 97 0 97 28
-7 c19 -5 106 15 309 72 l283 78 1 255 c1 222 2 251 14 225 8 -16 19 -61 25
-99z"/>
</g>
</svg>
